<svg xmlns="http://www.w3.org/2000/svg" viewBox="0 0 1254 1254" fill="none">
  <path fill="#D6B247" opacity="1.000000" stroke="none" 
	d="
M328.104523,522.444824 
	C329.087677,514.554626 330.156219,507.065521 331.822174,499.246094 
	C337.671204,495.768585 342.973419,492.702393 348.165344,489.459595 
	C366.613739,477.937012 385.205780,466.627747 403.331635,454.616272 
	C408.323761,451.308105 412.316284,450.715027 417.488525,453.118164 
	C422.235474,455.323608 427.234070,456.987427 432.121796,458.889862 
	C432.411804,459.062866 432.701813,459.235840 433.031860,459.923340 
	C433.034180,460.616486 432.996460,460.795135 432.678040,461.158691 
	C426.522552,465.095825 420.772888,469.063385 414.751068,472.562653 
	C389.801941,487.060516 364.709686,501.313232 339.823853,515.918091 
	C335.200989,518.631104 329.314575,520.906372 329.585724,528.062622 
	C329.597137,528.363708 328.880493,528.692383 328.503021,529.008240 
	C328.414368,528.538635 328.325684,528.068970 328.120972,527.257568 
	C328.066589,525.559204 328.128235,524.202515 328.104523,522.444824 
z"/>  <path fill="#2A28F9" opacity="1.000000" stroke="none" 
	d="
M425.440948,953.901611 
	C435.402283,958.158936 445.363617,962.416260 455.408447,967.076660 
	C451.080933,971.050842 445.859497,974.075195 447.865356,981.321106 
	C448.422852,983.335083 447.809998,985.642944 448.041290,987.782776 
	C448.745270,994.296387 449.696075,1000.783997 450.360748,1007.301086 
	C450.802612,1011.633667 451.023376,1015.996460 451.147064,1020.351318 
	C451.239990,1023.623169 451.342407,1026.952026 450.861145,1030.168701 
	C450.238739,1034.328491 448.991638,1038.391968 448.119324,1042.519287 
	C447.874390,1043.678223 447.587494,1045.777588 448.020569,1045.985352 
	C453.068298,1048.407593 451.230225,1052.592529 450.945679,1056.389160 
	C429.110046,1053.135376 408.776428,1045.458984 389.521851,1034.933960 
	C368.911743,1023.667969 350.193573,1009.788635 334.671356,992.037537 
	C328.050476,984.465881 322.282990,976.148010 316.398987,967.673950 
	C318.407562,967.583130 320.973907,967.402405 321.742035,968.490784 
	C325.538361,973.870117 330.629089,973.457520 336.028137,972.502563 
	C337.329987,972.272400 338.655731,972.179871 339.967621,972.002808 
	C348.728516,970.820496 357.761353,972.829651 366.374420,969.290833 
	C369.802124,967.882507 373.942688,966.678101 377.428009,967.283813 
	C383.336029,968.310486 388.961273,970.495850 394.549438,966.500916 
	C394.852905,966.283936 395.509277,966.616760 395.996033,966.591431 
	C401.305389,966.314941 406.619324,966.086914 411.916565,965.655884 
	C412.753174,965.587769 413.538574,964.609436 414.303619,963.996887 
	C416.321472,962.381653 418.384247,960.812439 420.298187,959.080261 
	C422.099365,957.450134 423.733368,955.635254 425.440948,953.901611 
z"/>  <path fill="#01B9FD" opacity="1.000000" stroke="none" 
	d="
M390.329865,584.899048 
	C391.868774,577.822021 393.908295,570.805054 394.767365,563.646423 
	C395.322845,559.018005 394.150543,554.182251 393.840729,548.662964 
	C395.363251,546.381104 396.536133,544.399658 398.273224,543.445801 
	C411.947174,535.937683 425.746979,528.659180 439.471039,521.241516 
	C448.038330,516.611084 456.541473,511.862091 465.515381,506.923065 
	C466.401855,509.228851 467.162384,510.865723 467.669342,512.577698 
	C473.611359,532.644165 474.150269,553.106262 472.196594,573.768738 
	C472.035675,575.470215 472.745331,577.254028 473.050476,578.999573 
	C469.121185,593.116272 465.191864,607.232971 460.871338,621.392273 
	C460.480164,619.868225 460.480164,618.301636 460.480164,617.066589 
	C457.778290,616.427795 455.370270,615.973206 453.030640,615.285889 
	C441.398224,611.868713 429.767181,608.444763 418.173248,604.900208 
	C414.715668,603.843201 409.688934,603.349609 408.313263,600.930420 
	C404.565491,594.340027 395.439911,593.135559 393.461700,585.158386 
	C393.381042,584.833069 391.416626,584.974915 390.329865,584.899048 
z"/>  <path fill="#2532FA" opacity="1.000000" stroke="none" 
	d="
M425.259155,953.661194 
	C423.733368,955.635254 422.099365,957.450134 420.298187,959.080261 
	C418.384247,960.812439 416.321472,962.381653 414.303619,963.996887 
	C413.538574,964.609436 412.753174,965.587769 411.916565,965.655884 
	C406.619324,966.086914 401.305389,966.314941 395.996033,966.591431 
	C395.509277,966.616760 394.852905,966.283936 394.549438,966.500916 
	C388.961273,970.495850 383.336029,968.310486 377.428009,967.283813 
	C373.942688,966.678101 369.802124,967.882507 366.374420,969.290833 
	C357.761353,972.829651 348.728516,970.820496 339.967621,972.002808 
	C338.655731,972.179871 337.329987,972.272400 336.028137,972.502563 
	C330.629089,973.457520 325.538361,973.870117 321.742035,968.490784 
	C320.973907,967.402405 318.407562,967.583130 316.288330,967.325562 
	C309.447906,954.985046 302.989441,942.497681 296.771851,929.413940 
	C297.341064,927.138733 297.669434,925.459839 297.755005,925.022339 
	C304.269836,923.667542 310.085449,922.381409 315.935913,921.280334 
	C318.182678,920.857422 321.214386,919.846191 322.662628,920.857849 
	C326.558319,923.579224 329.824219,921.766602 333.444031,920.889282 
	C335.053528,920.499207 336.871674,920.984497 338.595978,921.051147 
	C344.679443,921.286377 351.196716,923.008728 356.748138,921.400696 
	C365.684937,918.812134 373.604126,919.828430 381.830322,923.114441 
	C385.725983,924.670471 389.346954,928.158020 394.134735,925.718018 
	C403.060333,936.503296 413.048187,946.102112 425.259155,953.661194 
z"/>  <path fill="#01A9FC" opacity="1.000000" stroke="none" 
	d="
M390.162231,585.192993 
	C391.416626,584.974915 393.381042,584.833069 393.461700,585.158386 
	C395.439911,593.135559 404.565491,594.340027 408.313263,600.930420 
	C409.688934,603.349609 414.715668,603.843201 418.173248,604.900208 
	C429.767181,608.444763 441.398224,611.868713 453.030640,615.285889 
	C455.370270,615.973206 457.778290,616.427795 460.480164,617.066589 
	C460.480164,618.301636 460.480164,619.868225 460.669678,621.698242 
	C454.826477,634.215210 448.793732,646.468689 442.423401,658.575439 
	C440.795319,657.920166 439.440460,656.853699 438.224884,656.993958 
	C430.695984,657.863098 423.403046,657.632751 416.565857,653.841858 
	C415.721954,653.373962 414.654388,653.325623 413.711853,653.017395 
	C401.429901,649.000671 389.116730,645.074402 376.893616,640.885559 
	C373.111023,639.589233 369.576019,637.570496 365.927673,635.882568 
	C370.397736,627.451355 375.142731,619.151733 379.258728,610.551086 
	C383.178802,602.359741 386.442383,593.854309 390.162231,585.192993 
z"/>  <path fill="#203BF9" opacity="1.000000" stroke="none" 
	d="
M394.031036,925.401794 
	C389.346954,928.158020 385.725983,924.670471 381.830322,923.114441 
	C373.604126,919.828430 365.684937,918.812134 356.748138,921.400696 
	C351.196716,923.008728 344.679443,921.286377 338.595978,921.051147 
	C336.871674,920.984497 335.053528,920.499207 333.444031,920.889282 
	C329.824219,921.766602 326.558319,923.579224 322.662628,920.857849 
	C321.214386,919.846191 318.182678,920.857422 315.935913,921.280334 
	C310.085449,922.381409 304.269836,923.667542 297.755005,925.022339 
	C297.669434,925.459839 297.341064,927.138733 296.725525,929.041748 
	C293.149750,918.190186 289.861145,907.114380 286.858643,895.361450 
	C287.015656,891.770691 287.055634,888.837280 286.718933,885.947876 
	C286.176697,881.294800 287.803375,878.901062 292.528015,879.098450 
	C298.123413,879.332092 303.777069,879.823669 309.245148,880.968933 
	C314.295837,882.026733 319.083771,883.771545 324.215820,881.289734 
	C325.424133,880.705444 327.160431,881.056213 328.632324,881.198730 
	C337.916718,882.097717 347.178741,883.308899 356.480835,883.916687 
	C363.244476,884.358521 370.209167,883.566528 374.914551,889.996460 
	C374.958405,890.415039 375.002228,890.833557 375.168457,891.783569 
	C375.481262,892.586426 375.715363,892.812622 375.993073,892.993713 
	C375.993073,892.993713 376.154480,893.329346 376.169312,893.848389 
	C376.572052,894.884521 376.960022,895.401611 377.347961,895.918762 
	C382.874420,905.641052 388.400879,915.363281 394.031036,925.401794 
z"/>  <path fill="#1A50FB" opacity="1.000000" stroke="none" 
	d="
M371.119843,801.052307 
	C370.064240,809.779602 368.559967,818.481995 368.073669,827.240906 
	C367.540253,836.849854 367.945496,846.510986 367.572144,856.442139 
	C364.724304,848.706055 359.031921,845.036316 350.895020,845.301208 
	C346.975525,845.428772 343.067596,846.990845 339.182587,846.883606 
	C329.620209,846.619507 320.077881,845.691956 310.518463,845.209534 
	C308.609650,845.113220 306.665771,845.843201 304.729370,846.134338 
	C300.243530,846.808899 295.760315,847.885986 291.260895,847.967712 
	C287.432526,848.037231 285.393982,849.496948 284.210602,852.908875 
	C283.712952,854.343750 282.822388,855.642395 282.110474,857.002991 
	C282.721893,843.263672 283.333313,829.524414 284.313721,815.347351 
	C284.770416,814.783142 284.958984,814.583191 284.929291,814.542419 
	C284.755981,814.304871 284.531525,814.104797 284.324341,813.892090 
	C284.359833,813.156799 284.395386,812.421448 284.960663,811.253296 
	C287.507111,806.995483 290.996826,806.199524 294.936066,805.951782 
	C303.625488,805.405090 312.295044,804.294128 320.987396,804.111206 
	C330.332062,803.914551 339.695679,804.456848 349.046906,804.790955 
	C355.179932,805.010010 361.539734,807.266541 366.874207,801.934753 
	C367.729248,801.080139 369.677155,801.318970 371.119843,801.052307 
z"/>  <path fill="#1E45FA" opacity="1.000000" stroke="none" 
	d="
M282.030090,857.448792 
	C282.822388,855.642395 283.712952,854.343750 284.210602,852.908875 
	C285.393982,849.496948 287.432526,848.037231 291.260895,847.967712 
	C295.760315,847.885986 300.243530,846.808899 304.729370,846.134338 
	C306.665771,845.843201 308.609650,845.113220 310.518463,845.209534 
	C320.077881,845.691956 329.620209,846.619507 339.182587,846.883606 
	C343.067596,846.990845 346.975525,845.428772 350.895020,845.301208 
	C359.031921,845.036316 364.724304,848.706055 367.522583,856.864258 
	C370.215668,867.739929 372.588745,878.486145 374.938171,889.614380 
	C370.209167,883.566528 363.244476,884.358521 356.480835,883.916687 
	C347.178741,883.308899 337.916718,882.097717 328.632324,881.198730 
	C327.160431,881.056213 325.424133,880.705444 324.215820,881.289734 
	C319.083771,883.771545 314.295837,882.026733 309.245148,880.968933 
	C303.777069,879.823669 298.123413,879.332092 292.528015,879.098450 
	C287.803375,878.901062 286.176697,881.294800 286.718933,885.947876 
	C287.055634,888.837280 287.015656,891.770691 286.862915,894.953003 
	C285.037292,882.779297 283.493530,870.336914 282.030090,857.448792 
z"/>  <path fill="#0696FC" opacity="1.000000" stroke="none" 
	d="
M365.649445,636.085388 
	C369.576019,637.570496 373.111023,639.589233 376.893616,640.885559 
	C389.116730,645.074402 401.429901,649.000671 413.711853,653.017395 
	C414.654388,653.325623 415.721954,653.373962 416.565857,653.841858 
	C423.403046,657.632751 430.695984,657.863098 438.224884,656.993958 
	C439.440460,656.853699 440.795319,657.920166 442.161499,658.791016 
	C442.237183,659.153198 442.185455,659.092773 441.991852,659.250488 
	C441.649994,659.756592 441.501740,660.104980 441.353485,660.453430 
	C441.353485,660.453430 441.335175,660.216431 441.119843,660.406738 
	C440.640991,661.280334 440.377472,661.963684 440.113922,662.646973 
	C433.284790,674.356873 426.455658,686.066833 419.307861,697.602295 
	C418.096130,696.630127 417.328613,695.544250 416.285980,695.090027 
	C413.435272,693.848267 410.383728,693.056641 407.564545,691.755615 
	C400.335175,688.419067 393.344391,684.510498 385.960693,681.580444 
	C379.845581,679.153809 372.966705,678.530029 367.037628,675.786255 
	C359.027222,672.079285 350.699402,673.622498 342.553284,672.584229 
	C350.159241,660.485535 357.765228,648.386902 365.649445,636.085388 
z"/>  <path fill="#1C5DFC" opacity="1.000000" stroke="none" 
	d="
M371.442993,800.866699 
	C369.677155,801.318970 367.729248,801.080139 366.874207,801.934753 
	C361.539734,807.266541 355.179932,805.010010 349.046906,804.790955 
	C339.695679,804.456848 330.332062,803.914551 320.987396,804.111206 
	C312.295044,804.294128 303.625488,805.405090 294.936066,805.951782 
	C290.996826,806.199524 287.507111,806.995483 285.137390,810.926025 
	C287.339050,799.238586 289.893768,787.445618 293.033936,775.273315 
	C295.730103,773.976440 297.801147,772.382263 299.958313,772.255737 
	C310.692627,771.625854 321.450592,771.406677 332.197876,770.984070 
	C334.674286,770.886780 337.174683,770.742371 339.607605,770.305298 
	C353.424225,767.823120 366.941650,768.352356 380.002991,774.002441 
	C377.257385,782.895325 374.511749,791.788208 371.442993,800.866699 
z"/>  <path fill="#1669FC" opacity="1.000000" stroke="none" 
	d="
M380.233948,773.726196 
	C366.941650,768.352356 353.424225,767.823120 339.607605,770.305298 
	C337.174683,770.742371 334.674286,770.886780 332.197876,770.984070 
	C321.450592,771.406677 310.692627,771.625854 299.958313,772.255737 
	C297.801147,772.382263 295.730103,773.976440 293.252411,774.954102 
	C296.887817,763.825745 300.869965,752.629944 304.911041,741.455566 
	C305.641754,739.434937 306.614227,737.501709 308.107941,735.271606 
	C309.850769,735.276245 311.400970,735.163208 311.995514,735.862549 
	C314.749573,739.102356 317.705048,738.244141 321.353912,737.612000 
	C327.657440,736.519958 334.457916,735.170654 340.526398,736.437317 
	C358.337189,740.154846 376.352509,740.083618 394.322937,741.113403 
	C390.077759,750.973450 385.831207,760.832825 381.589813,770.694519 
	C381.197937,771.605713 380.839111,772.531128 380.233948,773.726196 
z"/>  <path fill="#1179FC" opacity="1.000000" stroke="none" 
	d="
M394.614380,740.942505 
	C376.352509,740.083618 358.337189,740.154846 340.526398,736.437317 
	C334.457916,735.170654 327.657440,736.519958 321.353912,737.612000 
	C317.705048,738.244141 314.749573,739.102356 311.995514,735.862549 
	C311.400970,735.163208 309.850769,735.276245 308.356171,735.011719 
	C311.101227,728.430054 314.230927,721.851807 317.864929,715.182922 
	C318.774963,713.943237 319.180695,712.794189 319.586426,711.645081 
	C319.586456,711.645081 319.638031,711.789612 319.870941,711.650085 
	C320.286224,710.893311 320.468597,710.276001 320.650970,709.658752 
	C320.650970,709.658752 320.683289,709.824585 320.902222,709.671753 
	C321.311951,708.905396 321.502716,708.291809 321.693481,707.678284 
	C321.693481,707.678284 321.687378,707.816711 321.984802,707.716064 
	C324.039093,706.867981 325.734650,705.779358 327.566681,705.450134 
	C330.584137,704.907837 333.689606,704.853027 336.758636,704.600830 
	C338.225861,704.480225 339.735168,704.104065 341.155975,704.313904 
	C349.157074,705.495972 357.144745,706.775208 365.120605,708.118591 
	C368.524902,708.692017 371.958710,709.269775 375.255676,710.257507 
	C379.970825,711.670044 384.482758,713.826599 389.245789,714.996460 
	C395.114502,716.438049 401.152039,717.192200 407.116577,718.243408 
	C403.046326,725.752808 398.976105,733.262207 394.614380,740.942505 
z"/>  <path fill="#0B87FC" opacity="1.000000" stroke="none" 
	d="
M407.392090,718.016846 
	C401.152039,717.192200 395.114502,716.438049 389.245789,714.996460 
	C384.482758,713.826599 379.970825,711.670044 375.255676,710.257507 
	C371.958710,709.269775 368.524902,708.692017 365.120605,708.118591 
	C357.144745,706.775208 349.157074,705.495972 341.155975,704.313904 
	C339.735168,704.104065 338.225861,704.480225 336.758636,704.600830 
	C333.689606,704.853027 330.584137,704.907837 327.566681,705.450134 
	C325.734650,705.779358 324.039093,706.867981 321.917175,707.701172 
	C328.132904,696.577393 334.713715,685.367798 341.748627,674.053894 
	C342.325806,673.502380 342.448914,673.055115 342.571991,672.607910 
	C342.571991,672.607910 342.583832,672.592651 342.568573,672.588440 
	C350.699402,673.622498 359.027222,672.079285 367.037628,675.786255 
	C372.966705,678.530029 379.845581,679.153809 385.960693,681.580444 
	C393.344391,684.510498 400.335175,688.419067 407.564545,691.755615 
	C410.383728,693.056641 413.435272,693.848267 416.285980,695.090027 
	C417.328613,695.544250 418.096130,696.630127 419.036499,697.821777 
	C419.083832,698.215759 419.031525,698.671875 418.600159,698.952209 
	C417.850220,699.912537 417.531677,700.592468 417.213104,701.272461 
	C417.213104,701.272461 417.206207,701.166382 417.106903,701.203552 
	C416.697845,701.415039 416.648926,701.658447 416.860779,701.971008 
	C413.796387,707.244141 410.731964,712.517212 407.392090,718.016846 
z"/>  <path fill="#2326E7" opacity="1.000000" stroke="none" 
	d="
M451.286377,1056.567871 
	C451.230225,1052.592529 453.068298,1048.407593 448.020569,1045.985352 
	C447.587494,1045.777588 447.874390,1043.678223 448.119324,1042.519287 
	C448.991638,1038.391968 450.238739,1034.328491 450.861145,1030.168701 
	C451.342407,1026.952026 451.239990,1023.623169 451.147064,1020.351318 
	C451.023376,1015.996460 450.802612,1011.633667 450.360748,1007.301086 
	C449.696075,1000.783997 448.745270,994.296387 448.041290,987.782776 
	C447.809998,985.642944 448.422852,983.335083 447.865356,981.321106 
	C445.859497,974.075195 451.080933,971.050842 455.740356,967.254028 
	C464.523804,968.403259 473.058838,969.778259 481.621338,971.746643 
	C474.494263,974.556885 471.848511,979.190063 473.964539,986.479553 
	C474.231781,987.400146 473.967041,988.466675 474.006866,989.463257 
	C474.238556,995.260498 473.984070,1001.131226 474.825165,1006.839844 
	C477.364349,1024.073853 476.426025,1040.855347 470.037445,1057.079712 
	C471.221130,1057.913086 472.605957,1058.888184 473.990814,1059.863159 
	C466.536224,1058.824341 459.081635,1057.785522 451.286377,1056.567871 
z"/>  <path fill="#72B69B" opacity="1.000000" stroke="none" 
	d="
M373.766663,530.782104 
	C364.496429,528.812378 355.817902,531.847656 347.028717,533.944397 
	C344.944946,534.441467 342.863190,534.946777 340.424744,535.076111 
	C342.764435,532.126465 345.219360,529.218018 348.209045,527.045593 
	C353.291962,523.352051 358.662933,520.043884 364.000549,516.714294 
	C373.144531,511.010345 382.246826,505.226562 391.564148,499.816589 
	C406.621094,491.073975 421.962463,482.814331 436.889435,473.860138 
	C440.122772,471.920502 442.685120,470.049103 446.451935,471.487274 
	C446.451935,471.487274 446.437439,471.781616 446.418030,472.021545 
	C446.670868,472.503052 446.943054,472.744629 447.215240,472.986237 
	C449.515076,475.964844 451.814941,478.943481 453.958466,482.599121 
	C448.078766,486.491058 442.324036,489.651642 436.637970,492.931335 
	C420.679474,502.136078 404.698029,511.303162 388.837158,520.673828 
	C383.637848,523.745667 378.780457,527.396240 373.766663,530.782104 
z"/>  <path fill="#9EB577" opacity="1.000000" stroke="none" 
	d="
M446.303528,471.206543 
	C442.685120,470.049103 440.122772,471.920502 436.889435,473.860138 
	C421.962463,482.814331 406.621094,491.073975 391.564148,499.816589 
	C382.246826,505.226562 373.144531,511.010345 364.000549,516.714294 
	C358.662933,520.043884 353.291962,523.352051 348.209045,527.045593 
	C345.219360,529.218018 342.764435,532.126465 340.002655,535.078003 
	C338.995148,535.755493 338.070160,536.128601 337.110321,536.351562 
	C327.813202,538.511353 328.782837,539.483826 328.409088,529.402466 
	C328.880493,528.692383 329.597137,528.363708 329.585724,528.062622 
	C329.314575,520.906372 335.200989,518.631104 339.823853,515.918091 
	C364.709686,501.313232 389.801941,487.060516 414.751068,472.562653 
	C420.772888,469.063385 426.522552,465.095825 432.994598,461.321472 
	C434.511169,461.437134 435.430542,461.574921 436.349915,461.712708 
	C436.349915,461.712708 436.263550,461.955383 436.305054,462.117950 
	C436.614594,462.502289 436.882660,462.724091 437.150726,462.945892 
	C437.150726,462.945892 437.025208,462.552887 437.226990,462.707886 
	C437.406097,463.189453 437.543549,463.419678 437.940826,463.928131 
	C438.879395,464.592377 439.718292,464.882111 440.557190,465.171814 
	C440.557190,465.171844 440.635101,465.298889 440.635345,465.653503 
	C441.126801,466.273407 441.618011,466.538727 442.109222,466.804047 
	C443.457886,468.177948 444.806519,469.551880 446.303528,471.206543 
z"/>  <path fill="#FBB821" opacity="1.000000" stroke="none" 
	d="
M431.995789,458.581024 
	C427.234070,456.987427 422.235474,455.323608 417.488525,453.118164 
	C412.316284,450.715027 408.323761,451.308105 403.331635,454.616272 
	C385.205780,466.627747 366.613739,477.937012 348.165344,489.459595 
	C342.973419,492.702393 337.671204,495.768585 332.048492,498.945862 
	C339.519409,467.641022 363.578888,441.676117 399.617340,445.083771 
	C411.603790,446.217163 422.508087,450.479401 431.995789,458.581024 
z"/>  <path fill="#2225E1" opacity="1.000000" stroke="none" 
	d="
M474.421082,1059.935181 
	C472.605957,1058.888184 471.221130,1057.913086 470.037445,1057.079712 
	C476.426025,1040.855347 477.364349,1024.073853 474.825165,1006.839844 
	C473.984070,1001.131226 474.238556,995.260498 474.006866,989.463257 
	C473.967041,988.466675 474.231781,987.400146 473.964539,986.479553 
	C471.848511,979.190063 474.494263,974.556885 481.880920,972.066162 
	C484.080109,971.830933 486.047150,971.869385 488.435852,971.919800 
	C491.232483,976.363708 493.607422,980.795715 496.005554,985.599976 
	C491.877563,989.148010 490.797607,993.026367 492.032410,998.238586 
	C492.722778,1001.152710 491.634125,1004.514526 491.206604,1007.655518 
	C491.009644,1009.102722 490.043518,1010.542603 490.166473,1011.919739 
	C490.828613,1019.334961 491.891632,1026.717041 492.439026,1034.138428 
	C492.611298,1036.473755 491.544159,1038.884033 491.167755,1041.279541 
	C490.176880,1047.586060 489.253845,1053.903442 488.163849,1060.538208 
	C483.633026,1060.575684 479.242188,1060.291382 474.421082,1059.935181 
z"/>  <path fill="#14BDEC" opacity="1.000000" stroke="none" 
	d="
M473.208618,578.636353 
	C472.745331,577.254028 472.035675,575.470215 472.196594,573.768738 
	C474.150269,553.106262 473.611359,532.644165 467.669342,512.577698 
	C467.162384,510.865723 466.401855,509.228851 465.515381,506.923065 
	C456.541473,511.862091 448.038330,516.611084 439.471039,521.241516 
	C425.746979,528.659180 411.947174,535.937683 398.273224,543.445801 
	C396.536133,544.399658 395.363251,546.381104 393.826904,548.275513 
	C391.527679,545.141174 389.330475,541.617859 387.067932,537.438843 
	C388.441650,535.554626 389.724701,534.034302 391.354614,533.162720 
	C394.117828,531.685059 397.253784,530.885254 399.964813,529.332214 
	C415.906006,520.200073 431.751678,510.901337 447.669861,501.728699 
	C452.709290,498.824799 459.812683,498.161469 459.826904,490.057068 
	C471.881256,510.958649 475.794525,533.754395 475.206665,557.504639 
	C475.035034,564.438416 474.003937,571.350891 473.208618,578.636353 
z"/>  <path fill="#37BACE" opacity="1.000000" stroke="none" 
	d="
M459.718750,489.742218 
	C459.812683,498.161469 452.709290,498.824799 447.669861,501.728699 
	C431.751678,510.901337 415.906006,520.200073 399.964813,529.332214 
	C397.253784,530.885254 394.117828,531.685059 391.354614,533.162720 
	C389.724701,534.034302 388.441650,535.554626 386.906189,537.162964 
	C382.663910,535.384644 378.518097,533.226501 374.069458,530.925232 
	C378.780457,527.396240 383.637848,523.745667 388.837158,520.673828 
	C404.698029,511.303162 420.679474,502.136078 436.637970,492.931335 
	C442.324036,489.651642 448.078766,486.491058 453.972626,482.938599 
	C455.965576,484.876495 457.788086,487.151917 459.718750,489.742218 
z"/>  <path fill="#203BF9" opacity="1.000000" stroke="none" 
	d="
M477.017456,935.371826 
	C477.983795,937.616821 478.945007,940.228821 479.615479,943.051636 
	C478.553894,940.754578 477.783081,938.246643 477.017456,935.371826 
z"/>  <path fill="#0B87FC" opacity="1.000000" stroke="none" 
	d="
M319.347076,711.842590 
	C319.180695,712.794189 318.774963,713.943237 318.129700,714.953125 
	C318.296051,713.889221 318.701874,712.964661 319.347076,711.842590 
z"/>  <path fill="#D6B247" opacity="1.000000" stroke="none" 
	d="
M440.374146,464.925659 
	C439.718292,464.882111 438.879395,464.592377 437.909058,463.743408 
	C437.777618,463.184143 437.785461,462.800171 437.785461,462.800171 
	C438.587341,463.426605 439.389252,464.053070 440.374146,464.925659 
z"/>  <path fill="#FBB821" opacity="1.000000" stroke="none" 
	d="
M436.180420,461.432739 
	C435.430542,461.574921 434.511169,461.437134 433.275269,461.136536 
	C432.996460,460.795135 433.034180,460.616486 433.119507,460.169128 
	C434.115051,460.317841 435.063019,460.735291 436.180420,461.432739 
z"/>  <path fill="#0696FC" opacity="1.000000" stroke="none" 
	d="
M417.453613,701.126099 
	C417.531677,700.592468 417.850220,699.912537 418.450562,699.126343 
	C418.386292,699.673340 418.040222,700.326538 417.453613,701.126099 
z"/>  <path fill="#D6B247" opacity="1.000000" stroke="none" 
	d="
M441.996277,466.558472 
	C441.618011,466.538727 441.126801,466.273407 440.584412,465.707886 
	C440.983276,465.709412 441.433319,466.011169 441.996277,466.558472 
z"/>  <path fill="#1E45FA" opacity="1.000000" stroke="none" 
	d="
M377.285828,895.594971 
	C376.960022,895.401611 376.572052,894.884521 376.147797,894.033325 
	C376.482208,894.223267 376.852936,894.747253 377.285828,895.594971 
z"/>  <path fill="#01A9FC" opacity="1.000000" stroke="none" 
	d="
M440.402252,662.426880 
	C440.377472,661.963684 440.640991,661.280334 441.238586,660.411499 
	C441.278625,660.886169 440.984619,661.546509 440.402252,662.426880 
z"/>  <path fill="#0696FC" opacity="1.000000" stroke="none" 
	d="
M342.374695,672.739014 
	C342.448914,673.055115 342.325806,673.502380 342.023499,673.844971 
	C341.843445,673.407532 341.954498,673.117432 342.374695,672.739014 
z"/>  <path fill="#0B87FC" opacity="1.000000" stroke="none" 
	d="
M321.437592,707.868958 
	C321.502716,708.291809 321.311951,708.905396 320.817871,709.675293 
	C320.736938,709.241028 320.959320,708.650330 321.437592,707.868958 
z"/>  <path fill="#0B87FC" opacity="1.000000" stroke="none" 
	d="
M320.399780,709.853394 
	C320.468597,710.276001 320.286224,710.893311 319.795074,711.661499 
	C319.707062,711.224304 319.927856,710.636169 320.399780,709.853394 
z"/>  <path fill="#FBB821" opacity="1.000000" stroke="none" 
	d="
M437.183899,462.607422 
	C436.882660,462.724091 436.614594,462.502289 436.182831,462.077301 
	C436.418427,462.005707 436.817749,462.137329 437.183899,462.607422 
z"/>  <path fill="#FBB821" opacity="1.000000" stroke="none" 
	d="
M437.734680,462.663452 
	C437.785461,462.800171 437.777618,463.184143 437.809387,463.368896 
	C437.543549,463.419678 437.406097,463.189453 437.421509,462.639160 
	C437.414185,462.415466 437.683899,462.526703 437.734680,462.663452 
z"/>  <path fill="#1C5DFC" opacity="1.000000" stroke="none" 
	d="
M284.247192,814.196106 
	C284.531525,814.104797 284.755981,814.304871 284.929291,814.542419 
	C284.958984,814.583191 284.770416,814.783142 284.468994,815.015564 
	C284.226898,814.914429 284.198456,814.707275 284.247192,814.196106 
z"/>  <path fill="#9EB577" opacity="1.000000" stroke="none" 
	d="
M447.118164,472.699829 
	C446.943054,472.744629 446.670868,472.503052 446.270721,472.019226 
	C446.435577,471.989136 446.728363,472.201294 447.118164,472.699829 
z"/>  <path fill="#1E45FA" opacity="1.000000" stroke="none" 
	d="
M375.977814,892.722412 
	C375.715363,892.812622 375.481262,892.586426 375.169891,892.102173 
	C375.353485,892.076599 375.658020,892.263855 375.977814,892.722412 
z"/>  <path fill="#01A9FC" opacity="1.000000" stroke="none" 
	d="
M441.607910,660.302246 
	C441.501740,660.104980 441.649994,659.756592 442.026459,659.230835 
	C442.123901,659.419434 441.993103,659.785217 441.607910,660.302246 
z"/>  <path fill="#0696FC" opacity="1.000000" stroke="none" 
	d="
M417.024597,701.801880 
	C416.648926,701.658447 416.697845,701.415039 417.159729,701.209412 
	C417.311859,701.178101 417.188446,701.632690 417.024597,701.801880 
z"/></svg>
